<?xml version="1.0" encoding="UTF-8" standalone="no"?>
<svg
   viewBox="0 0 512 512"
   version="1.1"
   id="svg4"
   width="512"
   height="512"
   sodipodi:docname="apple-touch-icon-192x192.svg"
   inkscape:export-filename="apple-touch-icon-192x192.svg"
   inkscape:export-xdpi="36"
   inkscape:export-ydpi="36"
   inkscape:version="1.2.2 (b0a84865, 2022-12-01)"
   xmlns:inkscape="http://www.inkscape.org/namespaces/inkscape"
   xmlns:sodipodi="http://sodipodi.sourceforge.net/DTD/sodipodi-0.dtd"
   xmlns="http://www.w3.org/2000/svg"
   xmlns:svg="http://www.w3.org/2000/svg">
  <sodipodi:namedview
     id="namedview728"
     pagecolor="#ffffff"
     bordercolor="#000000"
     borderopacity="0.25"
     inkscape:showpageshadow="2"
     inkscape:pageopacity="0.0"
     inkscape:pagecheckerboard="0"
     inkscape:deskcolor="#d1d1d1"
     showgrid="false"
     inkscape:zoom="0.4609375"
     inkscape:cx="257.08475"
     inkscape:cy="256"
     inkscape:window-width="1470"
     inkscape:window-height="806"
     inkscape:window-x="0"
     inkscape:window-y="37"
     inkscape:window-maximized="1"
     inkscape:current-layer="svg4" />
  <defs
     id="defs8" />
  <!--! Font Awesome Free 6.4.0 by @fontawesome - https://fontawesome.com License - https://fontawesome.com/license/free (Icons: CC BY 4.0, Fonts: SIL OFL 1.1, Code: MIT License) Copyright 2023 Fonticons, Inc. -->
  <path
     d="m 276.40206,245.08965 h 8.77987 c 11.34709,19.66488 32.60365,32.86037 56.94087,32.86037 5.64786,0 11.19306,-0.71882 16.43017,-2.05377 v 2.05377 16.43019 98.58111 c 0,9.08794 -7.34223,16.43018 -16.43017,16.43018 -9.08796,0 -16.4302,-7.34224 -16.4302,-16.43018 V 320.6685 l -69.82829,55.86263 h 28.75283 c 9.08794,0 16.4302,7.34224 16.4302,16.43019 0,9.08794 -7.34226,16.43018 -16.4302,16.43018 h -73.93583 c -27.21249,0 -49.29056,-22.07806 -49.29056,-49.29055 V 245.34638 c 0,-8.26643 -6.16132,-15.30062 -14.37641,-16.3275 l -4.05619,-0.51344 c -8.98526,-1.12958 -15.40331,-9.34467 -14.27373,-18.32993 1.12957,-8.98525 9.34466,-15.40329 18.32992,-14.27371 l 4.0562,0.51344 c 24.64528,3.08066 43.18058,24.02914 43.18058,48.93114 v 43.7967 c 17.66245,-26.54501 47.85292,-44.05343 82.15094,-44.05343 z m 82.15091,13.60625 v 0 c -5.13443,1.79706 -10.67962,2.82394 -16.43017,2.82394 -14.58179,0 -27.72595,-6.36669 -36.76255,-16.43019 v 0 c -1.89974,-2.10511 -3.5941,-4.36425 -5.08308,-6.77744 -4.72369,-7.59896 -7.44494,-16.53288 -7.44494,-26.08292 v 0 -49.29056 -10.26886 -0.66747 c 0,-3.02932 2.41319,-5.44251 5.44251,-5.49385 h 0.10268 c 1.69437,0 3.28604,0.82151 4.31292,2.15647 v 0.0514 l 6.57209,8.72855 13.96564,18.63798 2.46453,3.28604 h 32.86037 l 2.46453,-3.28604 13.96565,-18.63798 6.57207,-8.72855 v -0.0514 c 1.0269,-1.33496 2.61858,-2.15647 4.31294,-2.15647 h 0.10268 c 3.0293,0.0514 5.44249,2.46453 5.44249,5.49385 v 0.66747 10.26886 49.29056 c 0,8.88256 -2.36184,17.25169 -6.46939,24.4399 -5.80191,10.16617 -15.19792,18.0732 -26.39098,22.02671 z m -24.64528,-46.46661 a 8.2150918,8.2150918 0 1 0 -16.43018,0 8.2150918,8.2150918 0 1 0 16.43018,0 z m 24.64528,8.21509 a 8.2150924,8.2150924 0 1 0 0,-16.43018 8.2150924,8.2150924 0 1 0 0,16.43018 z"
     id="path2"
     style="fill:#353eca;fill-opacity:1;stroke-width:0.513442" />
  <path
     d="m 211.10229,462.51658 c 1.41657,2.2134 1.85926,4.95801 1.23951,7.52555 -0.53121,2.56753 -2.12487,4.86945 -4.33825,6.28603 -2.30192,1.41657 -4.95801,1.85926 -7.61407,1.32804 C 146.0285,465.34972 98.042144,433.47685 65.66461,388.05802 33.295937,342.63917 18.807061,286.95017 24.973576,231.52679 31.140976,176.01487 57.528168,124.8412 99.095712,87.665047 140.62784,50.471176 194.45757,29.919287 250.2351,29.930893 c 1.32804,0 1.85926,0.259497 3.80704,0.763784 1.2395,0.504035 1.59364,1.243321 3.27582,2.174706 0.97389,0.931399 1.68219,2.03632 2.21341,3.252799 0.44267,1.216493 0.70828,2.51974 0.70828,3.83095 v 89.403408 l 21.69125,-22.93962 c 0.88536,-0.95619 1.94779,-1.72645 3.1873,-2.25766 1.15096,-0.54007 2.479,-0.83224 3.80703,-0.86766 1.32804,-0.0443 2.56753,0.17709 3.80704,0.64632 1.23951,0.46923 2.39047,1.17753 3.36437,2.0806 0.88536,0.90304 1.68217,1.98319 2.21338,3.18728 0.53122,1.19523 0.88536,2.48785 0.88536,3.80704 0,1.31033 -0.17708,2.62064 -0.61976,3.84245 -0.5312,1.23064 -1.23949,2.31963 -2.12485,3.29352 l -38.95573,41.25766 c -0.9739,0.9739 -2.03632,1.77072 -3.27583,2.30194 -1.32803,0.53121 -2.65607,0.79681 -4.78094,0.79681 -0.5312,0 -1.94778,-0.2656 -3.18728,-0.79681 -1.2395,-0.53122 -2.39047,-1.32804 -3.27581,-2.30194 L 203.9309,120.14881 c -1.77072,-1.91237 -2.74462,-4.48875 -2.65607,-7.13597 0,-2.65608 1.15096,-5.96732 3.09874,-6.99432 1.94778,-1.82385 4.51534,-2.8066 7.1714,-2.72692 2.65609,0.0709 5.13509,1.19523 6.99433,3.12532 l 21.69125,23.02815 V 50.196707 C 190.2964,52.631441 143.01831,73.07436 107.0108,107.72724 71.021021,142.37128 48.8074,188.94109 44.486856,238.69819 c -4.320545,49.75709 9.535296,99.42565 39.017703,139.79795 28.703291,40.28379 72.617031,68.61522 121.311701,79.59366 2.56753,0.61974 4.86946,2.2134 6.28603,4.42678 z M 300.08074,35.514831 c 49.75708,11.273259 94.20204,38.931831 126.34052,78.533859 26.91488,33.2806 43.91373,73.47583 48.96028,115.973 4.95801,42.49715 -2.12487,85.61407 -20.54029,124.21568 -18.50398,38.60157 -47.45518,71.27127 -83.6663,94.1135 -36.21113,22.75368 -78.08853,34.88308 -120.93985,34.88308 -1.32803,0 -2.56754,-0.2656 -3.80705,-0.79681 -1.23949,-0.44268 -2.30192,-1.23951 -3.27581,-2.12487 -1.68217,-0.97388 -1.68217,-2.03632 -2.12485,-3.27582 -0.53122,-1.23949 -0.81785,-2.47917 -0.79684,-3.80704 l 0.75587,-47.76636 c 2.83607,1.16302 20.0091,0.0886 20.0091,0.0886 l -0.75587,37.40766 c 49.93415,-2.479 97.21226,-22.84221 133.2463,-57.54825 36.03406,-35.4143 58.25653,-81.18728 62.59479,-130.94437 4.24972,-50.55392 -9.56186,-99.42565 -39.04426,-139.79797 -29.48241,-40.328036 -72.59932,-68.624053 -121.294,-79.629057 -1.32803,-0.292156 -2.47899,-0.832229 -3.62996,-1.584778 -1.06244,-0.761425 -1.94778,-1.717599 -2.65608,-2.83316 -0.70828,-1.106684 -1.94777,-2.346186 -1.41656,-3.638808 -0.17708,-1.292621 -0.17708,-2.620658 0.0885,-3.904416 0.35414,-1.274934 0.88536,-2.487862 1.59364,-3.567995 0.79683,-1.071295 1.77072,-1.985867 2.83314,-2.68795 1.15097,-0.702984 2.39046,-1.18019 3.62997,-1.404179 1.32804,-0.223989 2.65607,-0.191224 3.89558,0.09645 z"
     id="path1934"
     style="fill:#353eca;fill-opacity:1;stroke-width:0.885358" />
</svg>
