<?xml version="1.0" encoding="UTF-8" standalone="no"?>
<svg
   viewBox="0 0 512 512"
   version="1.1"
   id="svg4"
   sodipodi:docname="favicon.svg"
   width="512"
   height="512"
   inkscape:version="1.2.2 (b0a84865, 2022-12-01)"
   inkscape:export-filename="../../../../Documents/NFCAT/docs/apple-touch-icon-192x192.png"
   inkscape:export-xdpi="36"
   inkscape:export-ydpi="36"
   xmlns:inkscape="http://www.inkscape.org/namespaces/inkscape"
   xmlns:sodipodi="http://sodipodi.sourceforge.net/DTD/sodipodi-0.dtd"
   xmlns="http://www.w3.org/2000/svg"
   xmlns:svg="http://www.w3.org/2000/svg">
  <defs
     id="defs8" />
  <sodipodi:namedview
     id="namedview6"
     pagecolor="#ffffff"
     bordercolor="#000000"
     borderopacity="0.25"
     inkscape:showpageshadow="2"
     inkscape:pageopacity="0.0"
     inkscape:pagecheckerboard="0"
     inkscape:deskcolor="#d1d1d1"
     showgrid="false"
     inkscape:zoom="0.57568367"
     inkscape:cx="-114.6463"
     inkscape:cy="279.66748"
     inkscape:window-width="1349"
     inkscape:window-height="458"
     inkscape:window-x="0"
     inkscape:window-y="37"
     inkscape:window-maximized="0"
     inkscape:current-layer="svg4" />
  <!--! Font Awesome Free 6.4.0 by @fontawesome - https://fontawesome.com License - https://fontawesome.com/license/free (Icons: CC BY 4.0, Fonts: SIL OFL 1.1, Code: MIT License) Copyright 2023 Fonticons, Inc. -->
  <path
     d="m 295.52234,408.60306 v 0 c -13.66466,4.78265 -28.4225,7.51557 -43.72689,7.51557 -38.80764,0 -73.78921,-16.94417 -97.83902,-43.72694 v 0 c -5.05592,-5.60249 -9.56525,-11.61491 -13.52799,-18.03732 -12.57152,-20.2237 -19.8138,-44.00024 -19.8138,-69.4165 v 0 -131.18078 -27.32931 -1.77639 c 0,-8.06216 6.42241,-14.48457 14.48458,-14.62121 h 0.27327 c 4.50936,0 8.74539,2.18635 11.47831,5.73918 v 0.1368 l 17.49081,23.22996 37.16784,49.6027 6.55904,8.74539 h 87.45385 l 6.55904,-8.74539 37.16787,-49.6027 17.49075,-23.22996 v -0.1368 c 2.73297,-3.55283 6.96903,-5.73918 11.47837,-5.73918 h 0.27327 c 8.06211,0.1368 14.48452,6.55905 14.48452,14.62121 v 1.77639 27.32931 131.18078 c 0,23.63985 -6.28575,45.91326 -17.21749,65.0438 -15.44107,27.05602 -40.4474,48.09961 -70.23636,58.62139 z M 229.93195,284.93787 c 0.008,-12.08052 -9.78296,-21.87793 -21.86346,-21.87793 -12.0805,0 -21.87144,9.79741 -21.86345,21.87793 -0.008,12.08053 9.78295,21.87794 21.86345,21.87794 12.0805,0 21.87144,-9.79741 21.86346,-21.87794 z m 65.59039,21.86346 c 12.08137,0.008 21.88016,-9.78208 21.88016,-21.86346 0,-12.08137 -9.79879,-21.87269 -21.88016,-21.86345 -12.08138,-0.008 -21.88017,9.78208 -21.88017,21.86345 0,12.08138 9.79879,21.87269 21.88017,21.86346 z"
     id="path2"
     style="fill:#3d62f9;fill-opacity:1;stroke-width:1.36646"
     sodipodi:nodetypes="csssscscccscsccccccccccscsccscsccscsccscsc" />
  <path
     d="m 211.10229,462.51658 c 1.41657,2.2134 1.85926,4.95801 1.23951,7.52555 -0.53121,2.56753 -2.12487,4.86945 -4.33825,6.28603 -2.30192,1.41657 -4.95801,1.85926 -7.61407,1.32804 C 146.0285,465.34972 98.042144,433.47685 65.66461,388.05802 33.295937,342.63917 18.807061,286.95017 24.973576,231.52679 31.140976,176.01487 57.528168,124.8412 99.095712,87.665047 140.62784,50.471176 194.45757,29.919287 250.2351,29.930893 c 1.32804,0 1.85926,0.259497 3.80704,0.763784 1.2395,0.504035 1.59364,1.243321 3.27582,2.174706 0.97389,0.931399 1.68219,2.03632 2.21341,3.252799 0.44267,1.216493 0.70828,2.51974 0.70828,3.83095 v 89.403408 l 21.69125,-22.93962 c 0.88536,-0.95619 1.94779,-1.72645 3.1873,-2.25766 1.15096,-0.54007 2.479,-0.83224 3.80703,-0.86766 1.32804,-0.0443 2.56753,0.17709 3.80704,0.64632 1.23951,0.46923 2.39047,1.17753 3.36437,2.0806 0.88536,0.90304 1.68217,1.98319 2.21338,3.18728 0.53122,1.19523 0.88536,2.48785 0.88536,3.80704 0,1.31033 -0.17708,2.62064 -0.61976,3.84245 -0.5312,1.23064 -1.23949,2.31963 -2.12485,3.29352 l -38.95573,41.25766 c -0.9739,0.9739 -2.03632,1.77072 -3.27583,2.30194 -1.32803,0.53121 -2.65607,0.79681 -4.78094,0.79681 -0.5312,0 -1.94778,-0.2656 -3.18728,-0.79681 -1.2395,-0.53122 -2.39047,-1.32804 -3.27581,-2.30194 L 203.9309,120.14881 c -1.77072,-1.91237 -2.74462,-4.48875 -2.65607,-7.13597 0,-2.65608 1.15096,-5.96732 3.09874,-6.99432 1.94778,-1.82385 4.51534,-2.8066 7.1714,-2.72692 2.65609,0.0709 5.13509,1.19523 6.99433,3.12532 l 21.69125,23.02815 V 50.196707 C 190.2964,52.631441 143.01831,73.07436 107.0108,107.72724 71.021021,142.37128 48.8074,188.94109 44.486856,238.69819 c -4.320545,49.75709 9.535296,99.42565 39.017703,139.79795 28.703291,40.28379 72.617031,68.61522 121.311701,79.59366 2.56753,0.61974 4.86946,2.2134 6.28603,4.42678 z M 300.08074,35.514831 c 49.75708,11.273259 94.20204,38.931831 126.34052,78.533859 26.91488,33.2806 43.91373,73.47583 48.96028,115.973 4.95801,42.49715 -2.12487,85.61407 -20.54029,124.21568 -18.50398,38.60157 -47.45518,71.27127 -83.6663,94.1135 -36.21113,22.75368 -78.08853,34.88308 -120.93985,34.88308 -1.32803,0 -2.56754,-0.2656 -3.80705,-0.79681 -1.23949,-0.44268 -2.30192,-1.23951 -3.27581,-2.12487 -1.68217,-0.97388 -1.68217,-2.03632 -2.12485,-3.27582 -0.53122,-1.23949 -0.81785,-2.47917 -0.79684,-3.80704 l 0.75587,-47.76636 c 2.83607,1.16302 20.0091,0.0886 20.0091,0.0886 l -0.75587,37.40766 c 49.93415,-2.479 97.21226,-22.84221 133.2463,-57.54825 36.03406,-35.4143 58.25653,-81.18728 62.59479,-130.94437 4.24972,-50.55392 -9.56186,-99.42565 -39.04426,-139.79797 -29.48241,-40.328036 -72.59932,-68.624053 -121.294,-79.629057 -1.32803,-0.292156 -2.47899,-0.832229 -3.62996,-1.584778 -1.06244,-0.761425 -1.94778,-1.717599 -2.65608,-2.83316 -0.70828,-1.106684 -1.94777,-2.346186 -1.41656,-3.638808 -0.17708,-1.292621 -0.17708,-2.620658 0.0885,-3.904416 0.35414,-1.274934 0.88536,-2.487862 1.59364,-3.567995 0.79683,-1.071295 1.77072,-1.985867 2.83314,-2.68795 1.15097,-0.702984 2.39046,-1.18019 3.62997,-1.404179 1.32804,-0.223989 2.65607,-0.191224 3.89558,0.09645 z"
     id="path1934"
     sodipodi:nodetypes="sccccccccccsccccsccsccccsscccccccccsccscccccscccscccccccccccccccc"
     style="fill:#3d62f9;fill-opacity:1;stroke-width:0.885358" />
</svg>
