<?xml version="1.0" encoding="UTF-8" standalone="no"?>
<!-- Created with Inkscape (http://www.inkscape.org/) -->

<svg
   version="1.1"
   id="svg282"
   width="512"
   height="512"
   viewBox="0 0 511.99998 511.99998"
   sodipodi:docname="pwa_icon.svg"
   inkscape:version="1.2.2 (b0a84865, 2022-12-01)"
   xmlns:inkscape="http://www.inkscape.org/namespaces/inkscape"
   xmlns:sodipodi="http://sodipodi.sourceforge.net/DTD/sodipodi-0.dtd"
   xmlns="http://www.w3.org/2000/svg"
   xmlns:svg="http://www.w3.org/2000/svg">
  <defs
     id="defs286" />
  <sodipodi:namedview
     id="namedview284"
     pagecolor="#ffffff"
     bordercolor="#000000"
     borderopacity="0.25"
     inkscape:showpageshadow="2"
     inkscape:pageopacity="0.0"
     inkscape:pagecheckerboard="0"
     inkscape:deskcolor="#d1d1d1"
     showgrid="false"
     inkscape:zoom="0.62166753"
     inkscape:cx="138.33761"
     inkscape:cy="258.98087"
     inkscape:window-width="1470"
     inkscape:window-height="806"
     inkscape:window-x="1080"
     inkscape:window-y="1001"
     inkscape:window-maximized="0"
     inkscape:current-layer="g288" />
  <g
     inkscape:groupmode="layer"
     inkscape:label="Image"
     id="g288">
    <rect
       style="fill:#353535;fill-opacity:1;stroke:none;stroke-width:9.36685"
       id="rect896"
       width="512"
       height="512"
       x="0"
       y="0"
       rx="50"
       ry="49.136276" />
    <path
       id="path1075-6-4-5-9"
       style="fill:#fbbf24;fill-opacity:1;stroke-width:1.39382"
       d="m 441.38909,87.137565 c -18.65303,0.594893 -50.67783,24.765405 -64.62205,56.201735 -9.14067,20.60698 -8.87983,17.69147 -9.73483,108.98009 -0.86353,92.20093 -0.57818,89.30939 -10.6143,107.72803 -10.38665,19.06196 -30.36738,32.97873 -47.41637,33.02501 -5.97982,0.0163 -6.04542,-0.0398 -6.85618,-5.66083 -10.88185,-75.44221 -51.24996,-139.6611 -109.6364,-174.41923 -7.74421,-4.6102 -7.74323,-4.61169 -7.74323,-63.62152 0,-67.020612 1.2093,-61.068185 -11.50892,-56.614058 -5.14183,1.800741 -8.57548,4.444226 -13.8315,10.642678 -6.99212,8.24587 -6.99281,8.24401 -15.53373,4.07777 -12.76451,-6.2265 -34.19152,-6.20177 -46.678738,0.053 -8.590266,4.30271 -8.589684,4.30255 -15.388099,-3.84513 C 75.237842,95.790757 65.869571,90.362334 58.83528,90.362334 c -2.216186,0 -2.393215,8.735702 -2.407702,144.753266 l 5.290131,0.17211 c 31.384652,1.01813 64.766611,10.97366 92.018391,27.44362 13.97071,8.44344 23.61911,15.98166 35.81477,27.98454 12.19564,12.0029 19.86826,21.51244 28.48387,35.29844 16.83292,26.9346 26.89046,59.41466 28.41766,91.77251 0.16668,3.53097 0.13076,6.59363 -0.0813,6.80512 -0.009,0.009 -0.59285,0.0145 -0.63739,0.0226 55.58961,-0.22663 71.21433,-0.77439 77.00668,-2.20343 29.32239,-7.23418 54.10413,-33.26386 65.65096,-68.95517 3.58316,-11.07548 3.58401,-11.0745 4.28581,-93.56742 0.68996,-81.10098 0.75124,-82.6571 3.64086,-92.16591 7.50675,-24.70204 25.16728,-43.68979 45.39073,-48.80462 9.10685,-2.30326 13.87502,-7.95517 13.87502,-16.44726 0,-11.002679 -5.71601,-15.603662 -14.19466,-15.333255 z M 56.416229,288.77912 v 54.03423 l 4.968601,0.45583 c 41.43945,3.80064 73.94085,36.78516 76.22744,77.36036 l 0.23453,4.16666 47.23858,-0.0454 c 2.98227,-0.003 4.44387,-0.0136 7.29686,-0.017 l -0.36504,-6.1734 c -1.48896,-25.14286 -8.80685,-46.99172 -23.17292,-69.18969 -4.00057,-6.18158 -6.32046,-8.80082 -17.86956,-20.16755 -11.46104,-11.28004 -14.25268,-13.68047 -20.45317,-17.58967 -19.57082,-12.33855 -41.836087,-20.12793 -62.467788,-21.85465 -3.567729,-0.29859 -8.220426,-0.69032 -10.340055,-0.87002 z m 0,108.20275 v 27.89188 l 27.24503,-0.0264 c -0.346563,-0.36199 -0.586806,-1.56307 -0.533361,-2.70274 0.05442,-1.15206 -0.801168,-4.41453 -1.900815,-7.24959 -2.8282,-7.29102 -8.879242,-13.24614 -16.256231,-15.999 -2.868513,-1.07044 -6.166811,-1.89598 -7.329016,-1.83463 -0.423084,0.0224 -0.827574,-0.0314 -1.225606,-0.0794 z"
       inkscape:export-filename="NFCAT/logo.png"
       inkscape:export-xdpi="96"
       inkscape:export-ydpi="96" />
  </g>
</svg>
